<mxfile host="app.diagrams.net" modified="2021-12-08T05:50:47.528Z" agent="5.0 (Macintosh; Intel Mac OS X 10_14_6) AppleWebKit/537.36 (KHTML, like Gecko) Chrome/96.0.4664.55 Safari/537.36" etag="plybR_iGCYK130MB2O2u" version="15.8.2" type="github">
  <diagram id="R-t3NbbQ8zUbG_X-md13" name="Page-1">
    <mxGraphModel dx="1426" dy="615" grid="1" gridSize="10" guides="1" tooltips="1" connect="1" arrows="1" fold="1" page="1" pageScale="1" pageWidth="827" pageHeight="1169" math="0" shadow="0">
      <root>
        <mxCell id="0" />
        <mxCell id="1" parent="0" />
      </root>
    </mxGraphModel>
  </diagram>
</mxfile>
